<?xml version="1.0" encoding="UTF-8"?>
<svg width="327px" height="79px" viewBox="0 0 327 79" version="1.1" xmlns="http://www.w3.org/2000/svg" xmlns:xlink="http://www.w3.org/1999/xlink">
    <title>Group</title>
    <g id="Amends-and-changes" stroke="none" stroke-width="1" fill="none" fill-rule="evenodd">
        <g id="Artboard" transform="translate(-142.000000, -311.000000)">
            <g id="Group" transform="translate(142.000000, 311.000000)">
                <text id="Excellent" font-family="ArialMT, Arial" font-size="17" font-weight="normal" fill="#0B1640">
                    <tspan x="164" y="56">Excellent</tspan>
                </text>
                <text id="Reviews" font-family="ArialMT, Arial" font-size="10" font-weight="normal" fill="#0B1640">
                    <tspan x="46" y="58">Reviews</tspan>
                </text>
                <g id="star" transform="translate(164.000000, 10.000000)" fill="#FFC107" fill-rule="nonzero">
                    <path d="M26.4915238,9.73347772 L18.1255407,8.4555619 L14.3757025,0.468304555 C14.0956269,-0.128131755 13.1170632,-0.128131755 12.8369876,0.468304555 L9.08828331,8.4555619 L0.722300245,9.73347772 C0.0351511893,9.83893129 -0.239254869,10.6746225 0.242656597,11.167873 L6.32041062,17.3975709 L4.8837475,26.2046447 C4.76922266,26.9042668 5.51646891,27.4292668 6.13444949,27.0856922 L13.606912,22.9559945 L21.0793745,27.0868262 C21.6916855,27.426999 22.4457353,26.9122041 22.3300765,26.2057786 L20.8934134,17.3987048 L26.9711674,11.1690069 C27.4530789,10.6746225 27.1775389,9.83893129 26.4915238,9.73347772 L26.4915238,9.73347772 Z" id="Path"></path>
                </g>
                <g id="star" transform="translate(193.000000, 10.000000)" fill="#FFC107" fill-rule="nonzero">
                    <path d="M26.4915238,9.73347772 L18.1255407,8.4555619 L14.3757025,0.468304555 C14.0956269,-0.128131755 13.1170632,-0.128131755 12.8369876,0.468304555 L9.08828331,8.4555619 L0.722300245,9.73347772 C0.0351511893,9.83893129 -0.239254869,10.6746225 0.242656597,11.167873 L6.32041062,17.3975709 L4.8837475,26.2046447 C4.76922266,26.9042668 5.51646891,27.4292668 6.13444949,27.0856922 L13.606912,22.9559945 L21.0793745,27.0868262 C21.6916855,27.426999 22.4457353,26.9122041 22.3300765,26.2057786 L20.8934134,17.3987048 L26.9711674,11.1690069 C27.4530789,10.6746225 27.1775389,9.83893129 26.4915238,9.73347772 L26.4915238,9.73347772 Z" id="Path"></path>
                </g>
                <g id="star" transform="translate(222.000000, 10.000000)" fill="#FFC107" fill-rule="nonzero">
                    <path d="M26.4915238,9.73347772 L18.1255407,8.4555619 L14.3757025,0.468304555 C14.0956269,-0.128131755 13.1170632,-0.128131755 12.8369876,0.468304555 L9.08828331,8.4555619 L0.722300245,9.73347772 C0.0351511893,9.83893129 -0.239254869,10.6746225 0.242656597,11.167873 L6.32041062,17.3975709 L4.8837475,26.2046447 C4.76922266,26.9042668 5.51646891,27.4292668 6.13444949,27.0856922 L13.606912,22.9559945 L21.0793745,27.0868262 C21.6916855,27.426999 22.4457353,26.9122041 22.3300765,26.2057786 L20.8934134,17.3987048 L26.9711674,11.1690069 C27.4530789,10.6746225 27.1775389,9.83893129 26.4915238,9.73347772 L26.4915238,9.73347772 Z" id="Path"></path>
                </g>
                <g id="star" transform="translate(251.000000, 10.000000)" fill="#FFC107" fill-rule="nonzero">
                    <path d="M26.4915238,9.73347772 L18.1255407,8.4555619 L14.3757025,0.468304555 C14.0956269,-0.128131755 13.1170632,-0.128131755 12.8369876,0.468304555 L9.08828331,8.4555619 L0.722300245,9.73347772 C0.0351511893,9.83893129 -0.239254869,10.6746225 0.242656597,11.167873 L6.32041062,17.3975709 L4.8837475,26.2046447 C4.76922266,26.9042668 5.51646891,27.4292668 6.13444949,27.0856922 L13.606912,22.9559945 L21.0793745,27.0868262 C21.6916855,27.426999 22.4457353,26.9122041 22.3300765,26.2057786 L20.8934134,17.3987048 L26.9711674,11.1690069 C27.4530789,10.6746225 27.1775389,9.83893129 26.4915238,9.73347772 L26.4915238,9.73347772 Z" id="Path"></path>
                </g>
                <g id="star" transform="translate(280.000000, 10.000000)" fill="#FFC107" fill-rule="nonzero">
                    <path d="M26.4915238,9.73347772 L18.1255407,8.4555619 L14.3757025,0.468304555 C14.0956269,-0.128131755 13.1170632,-0.128131755 12.8369876,0.468304555 L9.08828331,8.4555619 L0.722300245,9.73347772 C0.0351511893,9.83893129 -0.239254869,10.6746225 0.242656597,11.167873 L6.32041062,17.3975709 L4.8837475,26.2046447 C4.76922266,26.9042668 5.51646891,27.4292668 6.13444949,27.0856922 L13.606912,22.9559945 L21.0793745,27.0868262 C21.6916855,27.426999 22.4457353,26.9122041 22.3300765,26.2057786 L20.8934134,17.3987048 L26.9711674,11.1690069 C27.4530789,10.6746225 27.1775389,9.83893129 26.4915238,9.73347772 L26.4915238,9.73347772 Z" id="Path"></path>
                </g>
                <g id="Google_2015_logo" transform="translate(8.000000, 10.000000)" fill-rule="nonzero">
                    <path d="M63.6625,25.949 C63.6625,32.9725 58.168,38.148 51.425,38.148 C44.682,38.148 39.1875,32.9725 39.1875,25.949 C39.1875,18.876 44.682,13.75 51.425,13.75 C58.168,13.75 63.6625,18.876 63.6625,25.949 Z M58.3055,25.949 C58.3055,21.56 55.121,18.557 51.425,18.557 C47.729,18.557 44.5445,21.56 44.5445,25.949 C44.5445,30.294 47.729,33.341 51.425,33.341 C55.121,33.341 58.3055,30.2885 58.3055,25.949 Z" id="Shape" fill="#EA4335"></path>
                    <path d="M90.0625,25.949 C90.0625,32.9725 84.568,38.148 77.825,38.148 C71.082,38.148 65.5875,32.9725 65.5875,25.949 C65.5875,18.8815 71.082,13.75 77.825,13.75 C84.568,13.75 90.0625,18.876 90.0625,25.949 Z M84.7055,25.949 C84.7055,21.56 81.521,18.557 77.825,18.557 C74.129,18.557 70.9445,21.56 70.9445,25.949 C70.9445,30.294 74.129,33.341 77.825,33.341 C81.521,33.341 84.7055,30.2885 84.7055,25.949 Z" id="Shape" fill="#FBBC05"></path>
                    <path d="M115.3625,14.487 L115.3625,36.388 C115.3625,45.397 110.0495,49.0765 103.7685,49.0765 C97.856,49.0765 94.2975,45.122 92.9555,41.888 L97.6195,39.9465 C98.45,41.932 100.485,44.275 103.763,44.275 C107.7835,44.275 110.275,41.7945 110.275,37.125 L110.275,35.3705 L110.088,35.3705 C108.889,36.85 106.579,38.1425 103.664,38.1425 C97.5645,38.1425 91.9765,32.8295 91.9765,25.993 C91.9765,19.107 97.5645,13.75 103.664,13.75 C106.5735,13.75 108.8835,15.0425 110.088,16.478 L110.275,16.478 L110.275,14.4925 L115.3625,14.4925 L115.3625,14.487 Z M110.6545,25.993 C110.6545,21.6975 107.789,18.557 104.1425,18.557 C100.4465,18.557 97.35,21.6975 97.35,25.993 C97.35,30.2445 100.4465,33.341 104.1425,33.341 C107.789,33.341 110.6545,30.2445 110.6545,25.993 Z" id="Shape" fill="#4285F4"></path>
                    <polygon id="Path" fill="#34A853" points="123.75 1.65 123.75 37.4 118.525 37.4 118.525 1.65"></polygon>
                    <path d="M144.111,29.964 L148.269,32.736 C146.927,34.7215 143.693,38.1425 138.105,38.1425 C131.175,38.1425 125.9995,32.7855 125.9995,25.9435 C125.9995,18.689 131.219,13.7445 137.5055,13.7445 C143.836,13.7445 146.9325,18.7825 147.9445,21.505 L148.5,22.891 L132.1925,29.645 C133.441,32.0925 135.3825,33.341 138.105,33.341 C140.833,33.341 142.725,31.999 144.111,29.964 Z M131.3125,25.575 L142.2135,21.0485 C141.614,19.525 139.81,18.4635 137.687,18.4635 C134.9645,18.4635 131.175,20.867 131.3125,25.575 L131.3125,25.575 Z" id="Shape" fill="#EA4335"></path>
                    <path d="M19.4095,22.7755 L19.4095,17.6 L36.85,17.6 C37.0205,18.502 37.1085,19.569 37.1085,20.724 C37.1085,24.607 36.047,29.4085 32.626,32.8295 C29.2985,36.2945 25.047,38.1425 19.415,38.1425 C8.976,38.1425 0.198,29.6395 0.198,19.2005 C0.198,8.7615 8.976,0.2585 19.415,0.2585 C25.19,0.2585 29.304,2.5245 32.395,5.478 L28.743,9.13 C26.5265,7.051 23.5235,5.434 19.4095,5.434 C11.7865,5.434 5.8245,11.5775 5.8245,19.2005 C5.8245,26.8235 11.7865,32.967 19.4095,32.967 C24.354,32.967 27.17,30.9815 28.974,29.1775 C30.437,27.7145 31.3995,25.6245 31.779,22.77 L19.4095,22.7755 Z" id="Path" fill="#4285F4"></path>
                </g>
            </g>
        </g>
    </g>
</svg>