<?xml version="1.0" encoding="UTF-8"?>
<svg width="327px" height="79px" viewBox="0 0 327 79" version="1.1" xmlns="http://www.w3.org/2000/svg" xmlns:xlink="http://www.w3.org/1999/xlink">
    <title>Group</title>
    <g id="Amends-and-changes" stroke="none" stroke-width="1" fill="none" fill-rule="evenodd">
        <g id="Artboard" transform="translate(-142.000000, -311.000000)">
            <g id="Group" transform="translate(142.000000, 311.000000)">
                <text id="Rated-Excellent" font-family="ArialMT, Arial" font-size="10" font-weight="normal" fill="#0B1640">
                    <tspan x="164" y="60">Rated Excellent</tspan>
                </text>
                <text id="Reviews" font-family="ArialMT, Arial" font-size="10" font-weight="normal" fill="#0B1640">
                    <tspan x="46" y="58">Reviews</tspan>
                </text>
                <g id="star" transform="translate(164.000000, 15.000000)" fill="#FFC107" fill-rule="nonzero">
                    <path d="M30.1040043,11.0607701 L20.5972053,9.60859307 L16.3360256,0.532164267 C16.0177579,-0.145604267 14.9057536,-0.145604267 14.5874859,0.532164267 L10.3275947,9.60859307 L0.820795733,11.0607701 C0.0399445333,11.1806037 -0.271880533,12.1302528 0.275746133,12.6907648 L7.1822848,19.7699669 L5.54971307,29.7780053 C5.4195712,30.5730304 6.26871467,31.1696213 6.97096533,30.7791957 L15.4624,26.0863573 L23.9538347,30.7804843 C24.6496427,31.1670443 25.5065173,30.5820501 25.3750869,29.7792939 L23.7425152,19.7712555 L30.6490539,12.6920533 C31.1966805,12.1302528 30.8835669,11.1806037 30.1040043,11.0607701 L30.1040043,11.0607701 Z" id="Path"></path>
                </g>
                <g id="star" transform="translate(197.000000, 15.000000)" fill="#FFC107" fill-rule="nonzero">
                    <path d="M30.1040043,11.0607701 L20.5972053,9.60859307 L16.3360256,0.532164267 C16.0177579,-0.145604267 14.9057536,-0.145604267 14.5874859,0.532164267 L10.3275947,9.60859307 L0.820795733,11.0607701 C0.0399445333,11.1806037 -0.271880533,12.1302528 0.275746133,12.6907648 L7.1822848,19.7699669 L5.54971307,29.7780053 C5.4195712,30.5730304 6.26871467,31.1696213 6.97096533,30.7791957 L15.4624,26.0863573 L23.9538347,30.7804843 C24.6496427,31.1670443 25.5065173,30.5820501 25.3750869,29.7792939 L23.7425152,19.7712555 L30.6490539,12.6920533 C31.1966805,12.1302528 30.8835669,11.1806037 30.1040043,11.0607701 L30.1040043,11.0607701 Z" id="Path"></path>
                </g>
                <g id="star" transform="translate(230.000000, 15.000000)" fill="#FFC107" fill-rule="nonzero">
                    <path d="M30.1040043,11.0607701 L20.5972053,9.60859307 L16.3360256,0.532164267 C16.0177579,-0.145604267 14.9057536,-0.145604267 14.5874859,0.532164267 L10.3275947,9.60859307 L0.820795733,11.0607701 C0.0399445333,11.1806037 -0.271880533,12.1302528 0.275746133,12.6907648 L7.1822848,19.7699669 L5.54971307,29.7780053 C5.4195712,30.5730304 6.26871467,31.1696213 6.97096533,30.7791957 L15.4624,26.0863573 L23.9538347,30.7804843 C24.6496427,31.1670443 25.5065173,30.5820501 25.3750869,29.7792939 L23.7425152,19.7712555 L30.6490539,12.6920533 C31.1966805,12.1302528 30.8835669,11.1806037 30.1040043,11.0607701 L30.1040043,11.0607701 Z" id="Path"></path>
                </g>
                <g id="star" transform="translate(263.000000, 15.000000)" fill="#FFC107" fill-rule="nonzero">
                    <path d="M30.1040043,11.0607701 L20.5972053,9.60859307 L16.3360256,0.532164267 C16.0177579,-0.145604267 14.9057536,-0.145604267 14.5874859,0.532164267 L10.3275947,9.60859307 L0.820795733,11.0607701 C0.0399445333,11.1806037 -0.271880533,12.1302528 0.275746133,12.6907648 L7.1822848,19.7699669 L5.54971307,29.7780053 C5.4195712,30.5730304 6.26871467,31.1696213 6.97096533,30.7791957 L15.4624,26.0863573 L23.9538347,30.7804843 C24.6496427,31.1670443 25.5065173,30.5820501 25.3750869,29.7792939 L23.7425152,19.7712555 L30.6490539,12.6920533 C31.1966805,12.1302528 30.8835669,11.1806037 30.1040043,11.0607701 L30.1040043,11.0607701 Z" id="Path"></path>
                </g>
                <g id="star" transform="translate(296.000000, 15.000000)" fill="#FFC107" fill-rule="nonzero">
                    <path d="M30.1040043,11.0607701 L20.5972053,9.60859307 L16.3360256,0.532164267 C16.0177579,-0.145604267 14.9057536,-0.145604267 14.5874859,0.532164267 L10.3275947,9.60859307 L0.820795733,11.0607701 C0.0399445333,11.1806037 -0.271880533,12.1302528 0.275746133,12.6907648 L7.1822848,19.7699669 L5.54971307,29.7780053 C5.4195712,30.5730304 6.26871467,31.1696213 6.97096533,30.7791957 L15.4624,26.0863573 L23.9538347,30.7804843 C24.6496427,31.1670443 25.5065173,30.5820501 25.3750869,29.7792939 L23.7425152,19.7712555 L30.6490539,12.6920533 C31.1966805,12.1302528 30.8835669,11.1806037 30.1040043,11.0607701 L30.1040043,11.0607701 Z" id="Path"></path>
                </g>
                <g id="Google_2015_logo" transform="translate(8.000000, 10.000000)" fill-rule="nonzero">
                    <path d="M63.6625,25.949 C63.6625,32.9725 58.168,38.148 51.425,38.148 C44.682,38.148 39.1875,32.9725 39.1875,25.949 C39.1875,18.876 44.682,13.75 51.425,13.75 C58.168,13.75 63.6625,18.876 63.6625,25.949 Z M58.3055,25.949 C58.3055,21.56 55.121,18.557 51.425,18.557 C47.729,18.557 44.5445,21.56 44.5445,25.949 C44.5445,30.294 47.729,33.341 51.425,33.341 C55.121,33.341 58.3055,30.2885 58.3055,25.949 Z" id="Shape" fill="#EA4335"></path>
                    <path d="M90.0625,25.949 C90.0625,32.9725 84.568,38.148 77.825,38.148 C71.082,38.148 65.5875,32.9725 65.5875,25.949 C65.5875,18.8815 71.082,13.75 77.825,13.75 C84.568,13.75 90.0625,18.876 90.0625,25.949 Z M84.7055,25.949 C84.7055,21.56 81.521,18.557 77.825,18.557 C74.129,18.557 70.9445,21.56 70.9445,25.949 C70.9445,30.294 74.129,33.341 77.825,33.341 C81.521,33.341 84.7055,30.2885 84.7055,25.949 Z" id="Shape" fill="#FBBC05"></path>
                    <path d="M115.3625,14.487 L115.3625,36.388 C115.3625,45.397 110.0495,49.0765 103.7685,49.0765 C97.856,49.0765 94.2975,45.122 92.9555,41.888 L97.6195,39.9465 C98.45,41.932 100.485,44.275 103.763,44.275 C107.7835,44.275 110.275,41.7945 110.275,37.125 L110.275,35.3705 L110.088,35.3705 C108.889,36.85 106.579,38.1425 103.664,38.1425 C97.5645,38.1425 91.9765,32.8295 91.9765,25.993 C91.9765,19.107 97.5645,13.75 103.664,13.75 C106.5735,13.75 108.8835,15.0425 110.088,16.478 L110.275,16.478 L110.275,14.4925 L115.3625,14.4925 L115.3625,14.487 Z M110.6545,25.993 C110.6545,21.6975 107.789,18.557 104.1425,18.557 C100.4465,18.557 97.35,21.6975 97.35,25.993 C97.35,30.2445 100.4465,33.341 104.1425,33.341 C107.789,33.341 110.6545,30.2445 110.6545,25.993 Z" id="Shape" fill="#4285F4"></path>
                    <polygon id="Path" fill="#34A853" points="123.75 1.65 123.75 37.4 118.525 37.4 118.525 1.65"></polygon>
                    <path d="M144.111,29.964 L148.269,32.736 C146.927,34.7215 143.693,38.1425 138.105,38.1425 C131.175,38.1425 125.9995,32.7855 125.9995,25.9435 C125.9995,18.689 131.219,13.7445 137.5055,13.7445 C143.836,13.7445 146.9325,18.7825 147.9445,21.505 L148.5,22.891 L132.1925,29.645 C133.441,32.0925 135.3825,33.341 138.105,33.341 C140.833,33.341 142.725,31.999 144.111,29.964 Z M131.3125,25.575 L142.2135,21.0485 C141.614,19.525 139.81,18.4635 137.687,18.4635 C134.9645,18.4635 131.175,20.867 131.3125,25.575 L131.3125,25.575 Z" id="Shape" fill="#EA4335"></path>
                    <path d="M19.4095,22.7755 L19.4095,17.6 L36.85,17.6 C37.0205,18.502 37.1085,19.569 37.1085,20.724 C37.1085,24.607 36.047,29.4085 32.626,32.8295 C29.2985,36.2945 25.047,38.1425 19.415,38.1425 C8.976,38.1425 0.198,29.6395 0.198,19.2005 C0.198,8.7615 8.976,0.2585 19.415,0.2585 C25.19,0.2585 29.304,2.5245 32.395,5.478 L28.743,9.13 C26.5265,7.051 23.5235,5.434 19.4095,5.434 C11.7865,5.434 5.8245,11.5775 5.8245,19.2005 C5.8245,26.8235 11.7865,32.967 19.4095,32.967 C24.354,32.967 27.17,30.9815 28.974,29.1775 C30.437,27.7145 31.3995,25.6245 31.779,22.77 L19.4095,22.7755 Z" id="Path" fill="#4285F4"></path>
                </g>
            </g>
        </g>
    </g>
</svg>