<?xml version="1.0" encoding="UTF-8"?>
<svg width="116px" height="128px" viewBox="0 0 116 128" version="1.1" xmlns="http://www.w3.org/2000/svg" xmlns:xlink="http://www.w3.org/1999/xlink">
    <title>926C7CAA-4CD3-481F-9218-1446FBD0193F</title>
    <g id="Desktop" stroke="none" stroke-width="1" fill="none" fill-rule="evenodd">
        <g id="Artboard" transform="translate(-79.000000, -1669.000000)" fill-rule="nonzero">
            <g id="hand" transform="translate(79.000000, 1669.000000)">
                <path d="M104.041015,82.9228515 L103.78418,83.0615235 L76.0126953,102.12793 C71.6328125,104.260742 66.689453,104.948242 61.8935547,104.089844 L41.828125,100.395508 C39.6210938,99.850586 37.2890625,100.166015 35.3066405,101.279297 C35.283203,101.291992 35.2607422,101.305664 35.2373047,101.320312 L26.8271485,106.637695 L28.508789,112.154297 L37.7373047,106.320312 C37.7607422,106.305664 37.783203,106.291992 37.8066405,106.279297 C39.7890625,105.166015 42.1210938,104.850586 44.328125,105.395508 L64.3935547,109.089844 C69.189453,109.948242 74.1328125,109.260742 78.5126953,107.12793 L111.926758,84.1865235 C109.887695,82.0283202 106.652344,81.508789 104.041016,82.9228515 L104.041015,82.9228515 Z" id="Path" fill="#D4E1F4"></path>
                <path d="M92.28125,78.1884765 L90.881836,78.9423828 C87.4609375,76.0458985 82.5908202,75.6064453 78.7060547,77.8427735 L71.1679687,81.9423828 L61.1357422,81.9423828 C58.9628905,81.939453 56.819336,81.4482423 54.8632812,80.5048828 L53.4833985,79.8378905 C45.4716798,75.939453 35.9501953,76.8701173 28.8447265,82.2441405 C28.8125,82.2685548 28.7802735,82.2939453 28.75,82.3222655 L25.4179688,85.288086 C24.1591798,86.40625 22.6708985,87.236328 21.0576173,87.71875 L19.1660155,81.508789 C18.9736328,80.8779298 18.3916015,80.446289 17.7314453,80.446289 L1.618164,80.446289 C1.1884765,80.446289 0.779297,80.6298828 0.49511725,80.9521485 C0.209961,81.2734375 0.0771485,81.7021485 0.12890625,82.1279298 L5.5,126.167969 C5.591797,126.920899 6.23144525,127.486328 6.98925775,127.486328 L31.1572265,127.486328 C31.6328125,127.486328 32.080078,127.260742 32.3632812,126.878906 C32.6455078,126.49707 32.7314453,126.003906 32.5927735,125.548828 L29.4160155,115.129883 L39.3046875,108.879883 C40.6279297,108.148438 42.180664,107.948242 43.6464845,108.31836 C43.6767578,108.326172 43.7080078,108.333008 43.7402345,108.338867 L63.8544922,112.042969 C69.321289,113.020508 74.9570312,112.225586 79.9384765,109.771485 C80.0029297,109.740235 80.0634765,109.704102 80.1220702,109.664063 L114.913086,85.7763673 C115.567383,85.3271485 115.758789,84.446289 115.349609,83.7666015 C112.719726,79.3867188 107.108399,77.852539 102.616211,80.2841798 L102.023438,80.6035155 C99.626953,77.6953125 95.4765625,76.5683595 92.314453,78.1708985 L92.28125,78.1884765 Z M93.6865235,80.8398438 C95.5146485,79.923828 97.8173828,80.6748048 99.288086,82.078125 L86.0947265,89.1953125 L85.3203125,89.6035155 C84.9023438,88.4179688 84.2919923,87.3085938 83.5126953,86.3203125 L93.6865235,80.8398438 Z M80.158203,80.4677735 L80.1933595,80.4482423 C82.600586,79.0566405 85.5732423,79.084961 87.953125,80.5214845 L81.2460938,84.133789 C79.966797,83.2001953 78.5078125,82.5439453 76.9609375,82.205078 L80.158203,80.4677735 Z M8.31640625,124.486328 L3.3125,83.446289 L16.6201173,83.446289 L29.131836,124.486328 L8.31640625,124.486328 Z M111.925781,84.1865235 L78.5126953,107.12793 C74.1328125,109.260742 69.189453,109.948242 64.3935548,109.089844 L44.328125,105.395508 C42.1210938,104.850586 39.7890625,105.166016 37.8066405,106.279297 C37.783203,106.291992 37.7607423,106.305664 37.7373048,106.320313 L28.508789,112.154297 L21.9335938,90.591797 C23.9609375,89.9804688 25.8310548,88.935547 27.413086,87.5273438 L30.6982423,84.602539 C36.9033203,79.9375 45.1972655,79.1396485 52.1777345,82.5371095 L53.5576173,83.2041015 C55.9208985,84.34375 58.5117188,84.9375 61.1357423,84.9404298 L74.517578,84.9404298 C78.5732423,84.946289 82.0546875,87.8291015 82.8173828,91.8134765 L73.118164,91.3740235 C69.5927735,91.2158203 66.0595703,91.3789063 62.5634765,91.8623048 C62.0283203,91.930664 61.5703125,92.28125 61.3652345,92.7802735 C61.1601563,93.279297 61.2392578,93.850586 61.5722655,94.2753905 C61.9052735,94.7001953 62.4414063,94.913086 62.9746095,94.8339845 C66.290039,94.3759765 69.6396485,94.220703 72.982422,94.3710938 L84.3964845,94.8876953 C84.4189453,94.8876953 84.4423828,94.8896485 84.4648438,94.8896485 C85.2929688,94.8896485 85.9648438,94.2177735 85.9648438,93.3896485 C85.9648438,93.1464845 85.9541015,92.90625 85.939453,92.6669923 L87.5048828,91.841797 L104.041016,82.9228515 C106.652344,81.508789 109.887695,82.0283203 111.926758,84.1865235 L111.925781,84.1865235 Z" id="Shape" fill="#00ABAC"></path>
                <path d="M13.084961,118.280274 C13.084961,120.888672 15.1992188,123.00293 17.8076172,123.00293 C20.415039,123.00293 22.529297,120.888672 22.529297,118.280274 C22.529297,115.672852 20.415039,113.558594 17.8076172,113.558594 C15.2001953,113.561524 13.0878905,115.673828 13.084961,118.280273 L13.084961,118.280274 Z M17.8076172,116.558594 C18.758789,116.558594 19.529297,117.329101 19.529297,118.280274 C19.529297,119.232422 18.758789,120.00293 17.8076172,120.00293 C16.8554688,120.00293 16.084961,119.232422 16.084961,118.280274 C16.0859375,117.330078 16.8564453,116.560547 17.8076172,116.558594 Z" id="Shape" fill="#00ABAC"></path>
                <g id="Group" transform="translate(33.250000, 0.000000)">
                    <path d="M15.5945211,62.415159 C20.0590049,65.6793882 25.0113,68.2164821 30.2670716,69.9307653 C30.5784168,70.0219386 30.9088693,70.0230641 31.2213384,69.9341422 C36.6322207,68.2322406 41.7474941,65.7007743 46.3850723,62.4309172 C56.4380287,55.313772 61.75,45.8621397 61.75,35.1014391 L61.75,18.3852087 C61.75,17.6929669 61.3397441,17.0682609 60.7046902,16.7958665 L60.5169843,16.7148235 C50.4932514,12.3959106 41.0169015,6.90074965 32.2868798,0.345276826 C31.6731818,-0.115092275 30.8290663,-0.115092275 30.2153683,0.345276826 C21.4842227,6.90074965 12.0078725,12.3959106 1.98526384,16.7148235 L1.79530979,16.7958665 C1.16138007,17.0682609 0.75,17.6929669 0.75,18.3852087 L0.75,35.1014391 C0.75,45.8520094 5.88325724,55.296888 15.5945211,62.415159 Z" id="Shape" fill="#091540"></path>
                    <path d="M27.6377358,41.4914826 C28.2980675,42.1695058 29.3706936,42.1695058 30.0321279,41.4914826 L41.2632821,29.9582989 C41.9158972,29.278012 41.9114877,28.1845723 41.254463,27.5088132 C40.5963359,26.8341858 39.5314266,26.8296581 38.86889,27.4997578 L28.8338294,37.8036708 L23.6404678,32.4723042 C22.9790335,31.7931492 21.90751,31.7931492 21.2460757,32.4723042 C20.5846414,33.1514592 20.5846414,34.2516903 21.2460757,34.9308453 L27.6377358,41.4914826 Z" id="Path" fill="#FFFFFF"></path>
                </g>
            </g>
        </g>
    </g>
</svg>