<?xml version="1.0" encoding="UTF-8"?>
<svg width="148px" height="97px" viewBox="0 0 148 97" version="1.1" xmlns="http://www.w3.org/2000/svg" xmlns:xlink="http://www.w3.org/1999/xlink">
    <title>1C7A74B8-DD3B-4352-8183-D578D07D65E6</title>
    <g id="Desktop" stroke="none" stroke-width="1" fill="none" fill-rule="evenodd">
        <g id="Artboard" transform="translate(-225.000000, -1688.000000)" fill-rule="nonzero">
            <g id="user-2" transform="translate(225.000000, 1688.000000)">
                <circle id="Oval" fill="#091540" cx="73.5999" cy="22.5" r="22.4001"></circle>
                <circle id="Oval" fill="#00ABAC" cx="118.4001" cy="41.7" r="15.9999"></circle>
                <circle id="Oval" fill="#00ABAC" cx="29.2545" cy="41.7" r="15.9999"></circle>
                <path d="M73.5999,51.3 C50.6622,51.3 31.9998,69.9624 31.9998,92.9001 C31.9998,94.6665 33.4335,96.1002 35.1999,96.1002 L111.9999,96.1002 C113.7663,96.1002 115.2,94.6665 115.2,92.9001 C115.2,69.9624 96.5376,51.3 73.5999,51.3 Z" id="Path" fill="#091540"></path>
                <path d="M34.7712,64.7913 C32.8128,64.3752 30.8223,64.1001 28.8,64.1001 C12.9216,64.1001 0,77.0217 0,92.9001 C0,94.6665 1.4337,96.1002 3.2001,96.1002 L26.1888,96.1002 C25.8303,95.0955 25.5999,94.0266 25.5999,92.9001 C25.5999,82.3977 29.0304,72.7017 34.7712,64.7913 Z" id="Path" fill="#00ABAC"></path>
                <path d="M118.4001,64.1001 C116.3778,64.1001 114.3873,64.3752 112.4289,64.7913 C118.1697,72.7017 121.6002,82.3977 121.6002,92.9001 C121.6002,94.0266 121.3698,95.0952 121.0113,96.1002 L144,96.1002 C145.7664,96.1002 147.2001,94.6665 147.2001,92.9001 C147.2001,77.0217 134.2785,64.1001 118.4001,64.1001 Z" id="Path" fill="#00ABAC"></path>
            </g>
        </g>
    </g>
</svg>