<?xml version="1.0" encoding="UTF-8"?>
<svg width="167px" height="98px" viewBox="0 0 167 98" version="1.1" xmlns="http://www.w3.org/2000/svg" xmlns:xlink="http://www.w3.org/1999/xlink">
    <title>614D3F73-E575-45FC-B9F6-864271DBAAEE</title>
    <g id="Desktop" stroke="none" stroke-width="1" fill="none" fill-rule="evenodd">
        <g id="Artboard" transform="translate(-403.000000, -1684.000000)" fill-rule="nonzero">
            <g id="fast" transform="translate(403.000000, 1684.000000)">
                <path d="M45.0666667,83.2 L31.2,83.2 C29.2864,83.2 27.7333333,81.6469333 27.7333333,79.7333333 C27.7333333,77.8197333 29.2864,76.2666667 31.2,76.2666667 L45.0666667,76.2666667 C46.9802667,76.2666667 48.5333333,77.8197333 48.5333333,79.7333333 C48.5333333,81.6469333 46.9802667,83.2 45.0666667,83.2 Z" id="Path" fill="#000000"></path>
                <path d="M157.733333,83.2 L149.066667,83.2 C147.153067,83.2 145.6,81.6469333 145.6,79.7333333 C145.6,77.8197333 147.153067,76.2666667 149.066667,76.2666667 L154.856,76.2666667 L159.529067,51.3621333 C159.466667,38.6186667 148.581333,27.7333333 135.2,27.7333333 L112.437867,27.7333333 L101.406933,76.2666667 L121.333333,76.2666667 C123.246933,76.2666667 124.8,77.8197333 124.8,79.7333333 C124.8,81.6469333 123.246933,83.2 121.333333,83.2 L97.0666667,83.2 C96.0128,83.2 95.0144,82.7216 94.3557333,81.8965333 C93.6970667,81.0784 93.4474667,79.9968 93.6832,78.9706667 L106.288,23.504 C106.648533,21.9162667 108.049067,20.8 109.671467,20.8 L135.2,20.8 C152.4016,20.8 166.4,34.7984 166.4,52 L161.1376,80.3712 C160.832533,82.0144 159.404267,83.2 157.733333,83.2 Z" id="Path" fill="#091540"></path>
                <path d="M135.2,97.0666667 C125.645867,97.0666667 117.866667,89.2944 117.866667,79.7333333 C117.866667,70.1722667 125.645867,62.4 135.2,62.4 C144.754133,62.4 152.533333,70.1722667 152.533333,79.7333333 C152.533333,89.2944 144.754133,97.0666667 135.2,97.0666667 Z M135.2,69.3333333 C129.466133,69.3333333 124.8,73.9994667 124.8,79.7333333 C124.8,85.4672 129.466133,90.1333333 135.2,90.1333333 C140.933867,90.1333333 145.6,85.4672 145.6,79.7333333 C145.6,73.9994667 140.933867,69.3333333 135.2,69.3333333 Z" id="Shape" fill="#091540"></path>
                <path d="M58.9333333,97.0666667 C49.3792,97.0666667 41.6,89.2944 41.6,79.7333333 C41.6,70.1722667 49.3792,62.4 58.9333333,62.4 C68.4874667,62.4 76.2666667,70.1722667 76.2666667,79.7333333 C76.2666667,89.2944 68.4874667,97.0666667 58.9333333,97.0666667 Z M58.9333333,69.3333333 C53.1994667,69.3333333 48.5333333,73.9994667 48.5333333,79.7333333 C48.5333333,85.4672 53.1994667,90.1333333 58.9333333,90.1333333 C64.6672,90.1333333 69.3333333,85.4672 69.3333333,79.7333333 C69.3333333,73.9994667 64.6672,69.3333333 58.9333333,69.3333333 Z" id="Shape" fill="#091540"></path>
                <path d="M45.0666667,20.8 L17.3333333,20.8 C15.4197333,20.8 13.8666667,19.2469333 13.8666667,17.3333333 C13.8666667,15.4197333 15.4197333,13.8666667 17.3333333,13.8666667 L45.0666667,13.8666667 C46.9802667,13.8666667 48.5333333,15.4197333 48.5333333,17.3333333 C48.5333333,19.2469333 46.9802667,20.8 45.0666667,20.8 Z" id="Path" fill="#00ABAC"></path>
                <path d="M45.0666667,41.6 L10.4,41.6 C8.4864,41.6 6.93333333,40.0469333 6.93333333,38.1333333 C6.93333333,36.2197333 8.4864,34.6666667 10.4,34.6666667 L45.0666667,34.6666667 C46.9802667,34.6666667 48.5333333,36.2197333 48.5333333,38.1333333 C48.5333333,40.0469333 46.9802667,41.6 45.0666667,41.6 Z" id="Path" fill="#00ABAC"></path>
                <path d="M45.0666667,62.4 L3.46666667,62.4 C1.55306667,62.4 0,60.8469333 0,58.9333333 C0,57.0197333 1.55306667,55.4666667 3.46666667,55.4666667 L45.0666667,55.4666667 C46.9802667,55.4666667 48.5333333,57.0197333 48.5333333,58.9333333 C48.5333333,60.8469333 46.9802667,62.4 45.0666667,62.4 Z" id="Path" fill="#00ABAC"></path>
                <path d="M97.0666667,83.2 L72.8,83.2 C70.8864,83.2 69.3333333,81.6469333 69.3333333,79.7333333 C69.3333333,77.8197333 70.8864,76.2666667 72.8,76.2666667 L94.3002667,76.2666667 L110.0528,6.93333333 L31.2,6.93333333 C29.2864,6.93333333 27.7333333,5.38026667 27.7333333,3.46666667 C27.7333333,1.55306667 29.2864,0 31.2,0 L114.4,0 C115.453867,0 116.452267,0.4784 117.110933,1.30346667 C117.7696,2.1216 118.0192,3.2032 117.783467,4.22933333 L100.450133,80.496 C100.0896,82.0837333 98.6821333,83.2 97.0666667,83.2 Z" id="Path" fill="#091540"></path>
            </g>
        </g>
    </g>
</svg>