<?xml version="1.0" encoding="UTF-8"?>
<svg width="172px" height="98px" viewBox="0 0 172 98" version="1.1" xmlns="http://www.w3.org/2000/svg" xmlns:xlink="http://www.w3.org/1999/xlink">
    <title>791163AB-7E0E-4F86-8C89-0486547F9493</title>
    <g id="Desktop" stroke="none" stroke-width="1" fill="none" fill-rule="evenodd">
        <g id="Artboard" transform="translate(-610.000000, -1688.000000)" fill="#091540" fill-rule="nonzero">
            <g id="Group-2" transform="translate(610.000000, 1688.000000)">
                <g id="star-2" transform="translate(0.000000, 49.000000)">
                    <path d="M51.1267,18.6258 C50.9503,18.0827 50.481,17.6869 49.916,17.6049 L34.0437,15.2984 L26.9452,0.9157 C26.6926,0.4037 26.1711,0.0796 25.6002,0.0796 C25.0292,0.0796 24.5078,0.4037 24.2551,0.9157 L17.1563,15.2984 L1.2843,17.6049 C0.7194,17.6869 0.2499,18.0827 0.0735,18.6257 C-0.103,19.1688 0.0442,19.7649 0.4531,20.1634 L11.9379,31.3588 L9.2271,47.1671 C9.1305,47.7299 9.3619,48.2985 9.8238,48.6342 C10.0851,48.824 10.3946,48.9206 10.7056,48.9206 C10.9444,48.9206 11.184,48.8637 11.4034,48.7483 L25.6001,41.2845 L39.7962,48.7482 C40.3017,49.0139 40.914,48.9697 41.3759,48.6341 C41.8378,48.2985 42.0693,47.7297 41.9728,47.1669 L39.2611,31.3588 L50.7472,20.1633 C51.156,19.7649 51.3033,19.1688 51.1267,18.6258 Z" id="Path"></path>
                </g>
                <g id="star-2" transform="translate(61.000000, 49.000000)">
                    <path d="M51.1267,18.6258 C50.9503,18.0827 50.481,17.6869 49.916,17.6049 L34.0437,15.2984 L26.9452,0.9157 C26.6926,0.4037 26.1711,0.0796 25.6002,0.0796 C25.0292,0.0796 24.5078,0.4037 24.2551,0.9157 L17.1563,15.2984 L1.2843,17.6049 C0.7194,17.6869 0.2499,18.0827 0.0735,18.6257 C-0.103,19.1688 0.0442,19.7649 0.4531,20.1634 L11.9379,31.3588 L9.2271,47.1671 C9.1305,47.7299 9.3619,48.2985 9.8238,48.6342 C10.0851,48.824 10.3946,48.9206 10.7056,48.9206 C10.9444,48.9206 11.184,48.8637 11.4034,48.7483 L25.6001,41.2845 L39.7962,48.7482 C40.3017,49.0139 40.914,48.9697 41.3759,48.6341 C41.8378,48.2985 42.0693,47.7297 41.9728,47.1669 L39.2611,31.3588 L50.7472,20.1633 C51.156,19.7649 51.3033,19.1688 51.1267,18.6258 Z" id="Path"></path>
                </g>
                <g id="star-2" transform="translate(120.000000, 49.000000)">
                    <path d="M51.1267,18.6258 C50.9503,18.0827 50.481,17.6869 49.916,17.6049 L34.0437,15.2984 L26.9452,0.9157 C26.6926,0.4037 26.1711,0.0796 25.6002,0.0796 C25.0292,0.0796 24.5078,0.4037 24.2551,0.9157 L17.1563,15.2984 L1.2843,17.6049 C0.7194,17.6869 0.2499,18.0827 0.0735,18.6257 C-0.103,19.1688 0.0442,19.7649 0.4531,20.1634 L11.9379,31.3588 L9.2271,47.1671 C9.1305,47.7299 9.3619,48.2985 9.8238,48.6342 C10.0851,48.824 10.3946,48.9206 10.7056,48.9206 C10.9444,48.9206 11.184,48.8637 11.4034,48.7483 L25.6001,41.2845 L39.7962,48.7482 C40.3017,49.0139 40.914,48.9697 41.3759,48.6341 C41.8378,48.2985 42.0693,47.7297 41.9728,47.1669 L39.2611,31.3588 L50.7472,20.1633 C51.156,19.7649 51.3033,19.1688 51.1267,18.6258 Z" id="Path"></path>
                </g>
                <g id="star-2" transform="translate(26.000000, 0.000000)">
                    <path d="M51.1267,18.6258 C50.9503,18.0827 50.481,17.6869 49.916,17.6049 L34.0437,15.2984 L26.9452,0.9157 C26.6926,0.4037 26.1711,0.0796 25.6002,0.0796 C25.0292,0.0796 24.5078,0.4037 24.2551,0.9157 L17.1563,15.2984 L1.2843,17.6049 C0.7194,17.6869 0.2499,18.0827 0.0735,18.6257 C-0.103,19.1688 0.0442,19.7649 0.4531,20.1634 L11.9379,31.3588 L9.2271,47.1671 C9.1305,47.7299 9.3619,48.2985 9.8238,48.6342 C10.0851,48.824 10.3946,48.9206 10.7056,48.9206 C10.9444,48.9206 11.184,48.8637 11.4034,48.7483 L25.6001,41.2845 L39.7962,48.7482 C40.3017,49.0139 40.914,48.9697 41.3759,48.6341 C41.8378,48.2985 42.0693,47.7297 41.9728,47.1669 L39.2611,31.3588 L50.7472,20.1633 C51.156,19.7649 51.3033,19.1688 51.1267,18.6258 Z" id="Path"></path>
                </g>
                <g id="star-2" transform="translate(87.000000, 0.000000)">
                    <path d="M51.1267,18.6258 C50.9503,18.0827 50.481,17.6869 49.916,17.6049 L34.0437,15.2984 L26.9452,0.9157 C26.6926,0.4037 26.1711,0.0796 25.6002,0.0796 C25.0292,0.0796 24.5078,0.4037 24.2551,0.9157 L17.1563,15.2984 L1.2843,17.6049 C0.7194,17.6869 0.2499,18.0827 0.0735,18.6257 C-0.103,19.1688 0.0442,19.7649 0.4531,20.1634 L11.9379,31.3588 L9.2271,47.1671 C9.1305,47.7299 9.3619,48.2985 9.8238,48.6342 C10.0851,48.824 10.3946,48.9206 10.7056,48.9206 C10.9444,48.9206 11.184,48.8637 11.4034,48.7483 L25.6001,41.2845 L39.7962,48.7482 C40.3017,49.0139 40.914,48.9697 41.3759,48.6341 C41.8378,48.2985 42.0693,47.7297 41.9728,47.1669 L39.2611,31.3588 L50.7472,20.1633 C51.156,19.7649 51.3033,19.1688 51.1267,18.6258 Z" id="Path"></path>
                </g>
            </g>
        </g>
    </g>
</svg>